<svg fill="#FAB005" xmlns="http://www.w3.org/2000/svg"  viewBox="0 0 72 72" width="64px" height="64px"><path d="M 36 7 C 26.611 7 19 14.611 19 24 C 19 30.495939 22.645324 36.136083 28 38.998047 L 28 56.0625 C 28 57.3005 28.573734 58.468563 29.552734 59.226562 L 34.863281 63.335938 C 36.095281 64.288938 37.836562 64.209438 38.976562 63.148438 L 45.064453 57.484375 C 46.039453 56.456375 46.248937 54.919969 45.585938 53.667969 L 44 50.671875 L 44 50.357422 L 46.947266 46.746094 C 47.817266 45.680094 47.737719 44.129203 46.761719 43.158203 L 44 40.410156 L 44 38.998047 C 49.354676 36.136083 53 30.495939 53 24 C 53 14.611 45.389 7 36 7 z M 36 15 C 38.209 15 40 16.791 40 19 C 40 21.209 38.209 23 36 23 C 33.791 23 32 21.209 32 19 C 32 16.791 33.791 15 36 15 z"/></svg>